/* XPM */
static char * stick_toggled_prelight_xpm[] = {
"24 26 4 1",
" 	c None",
".	c #141414",
"+	c #8a8a8a",
"@	c #141414",
"@@@@@@@@@@@@@@@@@@@@@@@@",
"........................",
"........................",
"........................",
"........................",
"........................",
"........................",
"........................",
"........................",
"...........++...........",
".........++++++.........",
".........++++++.........",
"........++++++++........",
"........++++++++........",
".........++++++.........",
".........++++++.........",
"...........++...........",
"........................",
"........................",
"........................",
"........................",
"........................",
"........................",
"........................",
"........................",
"........................"};
